<?xml version="1.0" standalone="no"?>
<!DOCTYPE svg PUBLIC "-//W3C//DTD SVG 20010904//EN"
 "http://www.w3.org/TR/2001/REC-SVG-20010904/DTD/svg10.dtd">
<svg version="1.0" xmlns="http://www.w3.org/2000/svg"
 width="492.000000pt" height="492.000000pt" viewBox="0 0 492.000000 492.000000"
 preserveAspectRatio="xMidYMid meet">
<metadata>
Created by potrace 1.11, written by Peter Selinger 2001-2013
</metadata>
<g transform="translate(0.000000,492.000000) scale(0.100000,-0.100000)"
fill="#000000" stroke="none">
<path d="M2115 4412 c-249 -28 -429 -188 -526 -470 -27 -78 -60 -224 -53 -231
3 -3 104 -6 224 -7 l219 0 10 41 c24 94 86 147 173 146 61 0 125 -21 258 -84
149 -71 220 -91 330 -91 117 -1 172 6 238 31 9 3 22 7 28 8 29 7 127 71 167
109 113 111 208 314 243 524 l5 32 -224 0 -223 0 -17 -52 c-29 -89 -90 -138
-172 -138 -46 0 -138 31 -237 81 -83 42 -157 71 -224 88 -43 11 -168 19 -219
13z"/>
<path d="M2417 3544 c-1 -1 -31 -4 -67 -7 -246 -20 -508 -155 -675 -348 -126
-145 -217 -336 -243 -514 -9 -61 -9 -254 0 -315 48 -339 300 -661 618 -791
l77 -32 -114 -261 c-62 -143 -118 -272 -124 -286 -14 -32 -33 -75 -53 -120
-59 -134 -146 -343 -146 -350 0 -5 232 -8 517 -7 l516 2 88 205 c49 113 95
219 103 235 57 118 546 1270 556 1310 20 86 25 136 24 270 0 229 -64 413 -210
605 -163 216 -426 365 -694 395 -67 8 -168 13 -173 9z"/>
</g>
</svg>
