<svg width="104" height="196" viewBox="0 0 104 196" fill="none" xmlns="http://www.w3.org/2000/svg">
<path d="M104 95.2565C104.003 98.6128 103.67 101.961 103.007 105.253C102.542 107.629 101.901 109.967 101.089 112.25L98.2708 118.739L65.1157 195.376H13.1157L35.3341 144.038C26.2757 141.003 18.2378 135.554 12.1044 128.289C5.97096 121.024 1.97949 112.226 0.568872 102.86C-0.841746 93.4951 0.383126 83.9261 4.1088 75.2055C7.83448 66.4849 13.9167 58.9505 21.6866 53.4306C29.4565 47.9108 38.6132 44.6194 48.1498 43.9183C57.6864 43.2172 67.2336 45.1336 75.7416 49.4567C84.2496 53.7799 91.3888 60.3424 96.3743 68.4226C101.36 76.5028 103.998 85.7877 104 95.2565Z" fill="#662BFF"/>
<path d="M68.8069 9.50081C60.4962 9.50081 52.397 0.236748 38.9053 0.236748C21.8715 0.236748 10.0716 9.93313 5.47211 35.8107H27.9195C29.1671 29.1406 32.2757 26.3099 37.2664 26.3099C45.5665 26.3099 53.6658 35.4093 67.1681 35.4093C84.1701 35.4093 96.0124 25.9085 100.58 0H77.9424C76.9062 6.46426 73.787 9.50081 68.8069 9.50081Z" fill="#662BFF"/>
</svg>
