<svg width="48" height="91" viewBox="0 0 48 91" fill="none" xmlns="http://www.w3.org/2000/svg">
<path d="M48 43.9645C48.0013 45.5136 47.8478 47.059 47.5418 48.5781C47.3273 49.6747 47.0314 50.7542 46.6565 51.8076L45.3558 54.8026L30.0534 90.1735H6.0534L16.308 66.4789C12.1272 65.0782 8.41746 62.5632 5.58664 59.2102C2.75583 55.8573 0.913611 51.7964 0.262556 47.474C-0.388498 43.1516 0.176827 38.7351 1.89637 34.7102C3.61592 30.6853 6.42308 27.2079 10.0092 24.6603C13.5953 22.1127 17.8215 20.5935 22.223 20.27C26.6245 19.9464 31.0309 20.8309 34.9577 22.8262C38.8844 24.8215 42.1794 27.8503 44.4804 31.5796C46.7814 35.309 47.9992 39.5943 48 43.9645Z" fill="white"/>
<path d="M31.757 4.38499C27.9213 4.38499 24.1832 0.109268 17.9563 0.109268C10.0945 0.109268 4.64841 4.58452 2.52559 16.528H12.8859C13.4618 13.4495 14.8965 12.143 17.1999 12.143C21.0307 12.143 24.7688 16.3428 31.0007 16.3428C38.8478 16.3428 44.3134 11.9578 46.4216 0H35.9734C35.4952 2.9835 34.0555 4.38499 31.757 4.38499Z" fill="white"/>
</svg>
