<svg width="48" height="32" viewBox="0 0 48 32" fill="none" xmlns="http://www.w3.org/2000/svg">
<path d="M30.3328 5.57514H17.6707V26.4212H30.3328V5.57514Z" fill="#FF5F00"/>
<path d="M18.975 16C18.9734 13.9927 19.4248 12.0114 20.2951 10.2059C21.1654 8.40043 22.4317 6.81816 23.9982 5.57882C22.058 4.04187 19.728 3.08614 17.2744 2.82084C14.8208 2.55555 12.3427 2.9914 10.1232 4.07859C7.90376 5.16578 6.03252 6.86044 4.72337 8.96888C3.41422 11.0773 2.71997 13.5145 2.71997 16.0018C2.71997 18.4892 3.41422 20.9264 4.72337 23.0348C6.03252 25.1432 7.90376 26.8379 10.1232 27.9251C12.3427 29.0123 14.8208 29.4481 17.2744 29.1828C19.728 28.9175 22.058 27.9618 23.9982 26.4249C22.4312 25.1851 21.1646 23.6023 20.2943 21.7961C19.424 19.99 18.9729 18.0079 18.975 16V16Z" fill="#EB001B"/>
<path d="M44.0216 24.2154V23.7883H44.2043V23.6999H43.7695V23.7883H43.9412V24.2154H44.0216ZM44.8655 24.2154V23.6999H44.734L44.5806 24.0681L44.4271 23.6999H44.2956V24.2154H44.3906V23.8251L44.5331 24.1602H44.6317L44.7742 23.8251V24.2154H44.8655Z" fill="#F79E1B"/>
<path d="M45.2784 16C45.2784 18.4875 44.584 20.9249 43.2746 23.0334C41.9652 25.1419 40.0937 26.8365 37.874 27.9236C35.6542 29.0106 33.1758 29.4462 30.7221 29.1805C28.2684 28.9148 25.9383 27.9586 23.9983 26.4212C25.5642 25.1807 26.8301 23.598 27.7006 21.7925C28.5711 19.9869 29.0234 18.0056 29.0234 15.9982C29.0234 13.9907 28.5711 12.0094 27.7006 10.2039C26.8301 8.39829 25.5642 6.81558 23.9983 5.57515C25.9383 4.03772 28.2684 3.08151 30.7221 2.81584C33.1758 2.55016 35.6542 2.98574 37.874 4.07277C40.0937 5.1598 41.9652 6.85443 43.2746 8.96295C44.584 11.0715 45.2784 13.5088 45.2784 15.9963V16Z" fill="#F79E1B"/>
</svg>
