<svg width="80" height="80" viewBox="0 0 80 80" fill="none" xmlns="http://www.w3.org/2000/svg">
<path d="M16.6667 10C12.9667 10 10 13 10 16.6667V63.3333C10 65.1014 10.7024 66.7971 11.9526 68.0474C13.2029 69.2976 14.8986 70 16.6667 70H63.3333C65.1014 70 66.7971 69.2976 68.0474 68.0474C69.2976 66.7971 70 65.1014 70 63.3333V55.7333C71.9667 54.5667 73.3333 52.4667 73.3333 50V30C73.3333 27.5333 71.9667 25.4333 70 24.2667V16.6667C70 14.8986 69.2976 13.2029 68.0474 11.9526C66.7971 10.7024 65.1014 10 63.3333 10H16.6667ZM16.6667 16.6667H63.3333V23.3333H43.3333C41.5652 23.3333 39.8695 24.0357 38.6193 25.286C37.369 26.5362 36.6667 28.2319 36.6667 30V50C36.6667 51.7681 37.369 53.4638 38.6193 54.714C39.8695 55.9643 41.5652 56.6667 43.3333 56.6667H63.3333V63.3333H16.6667V16.6667ZM43.3333 30H66.6667V50H43.3333V30ZM53.3333 35C52.0073 35 50.7355 35.5268 49.7978 36.4645C48.8601 37.4021 48.3333 38.6739 48.3333 40C48.3333 41.3261 48.8601 42.5979 49.7978 43.5355C50.7355 44.4732 52.0073 45 53.3333 45C54.6594 45 55.9312 44.4732 56.8689 43.5355C57.8065 42.5979 58.3333 41.3261 58.3333 40C58.3333 38.6739 57.8065 37.4021 56.8689 36.4645C55.9312 35.5268 54.6594 35 53.3333 35Z" fill="black"/>
</svg>
